# xmcd
#
# Track frame offsets:
#	150
#	17298
#	38050
#	54180
#	66760
#	81602
#	96720
#	117541
#	130493
#	144377
#	170159
#	188823
#	206538
#
# Disc length: 2976 seconds
#
# Revision: 1
# Processed by: cddbd v1.5.2PL0 Copyright (c) Steve Scherf et al.
# Submitted via: EasyCDDAExtractor 11.5.0.1
#
DISCID=be0b9e0d
DTITLE=Boka Loca - Pagode
DYEAR=1900
DGENRE=Pagode
TTITLE0=01
TTITLE1=Não pedi pra me apaixonar
TTITLE2=Amor
TTITLE3=Ser feliz de novo
TTITLE4=05
TTITLE5=06
TTITLE6=Duas paixões
TTITLE7=08
TTITLE8=Maçã do amor
TTITLE9=Pout Pourri
TTITLE10=Quem de nós dois
TTITLE11=Intro
TTITLE12=Apaixonado
EXTD=
EXTT0=
EXTT1=
EXTT2=
EXTT3=
EXTT4=
EXTT5=
EXTT6=
EXTT7=
EXTT8=
EXTT9=
EXTT10=
EXTT11=
EXTT12=
PLAYORDER=
